<?xml version="1.0" standalone="no"?>
<!DOCTYPE svg PUBLIC "-//W3C//DTD SVG 1.1//EN" "http://www.w3.org/Graphics/SVG/1.1/DTD/svg11.dtd" >
<svg xmlns="http://www.w3.org/2000/svg" xmlns:xlink="http://www.w3.org/1999/xlink" version="1.1">
<metadata></metadata>
<defs>
<font id="fangsongregular" horiz-adv-x="1024" vert-adv-y="2048" >
<font-face units-per-em="2048" ascent="1760" descent="-288" />
<missing-glyph horiz-adv-x="500" />
<glyph horiz-adv-x="0" vert-adv-y="0" />
<glyph horiz-adv-x="682" />
<glyph unicode=" " />
<glyph unicode="!" d="M384 88q0 48 32 80t80 32t80 -32t32 -80t-32 -80t-80 -32t-80 32t-32 80zM408 1272q0 64 20 100t68 36q56 0 72 -40t16 -96q0 -104 -28 -324t-28 -436v-80h-64v80q0 216 -28 436t-28 324z" />
<glyph unicode="&#x22;" d="M304 1432q0 40 8 72t24 40q48 32 80 12t48 -36q8 -8 12 -28t4 -44l-80 -456q0 -16 -12 -20t-28 20zM584 1456q0 32 12 60t28 36q40 24 76 8t52 -32q8 -16 12 -36t-4 -44l-104 -448q0 -16 -12 -20t-28 20z" />
<glyph unicode="#" d="M64 336v152h160l40 416h-200v152h208l24 328h72l-24 -328h368l24 328h72l-24 -328h152v-152h-160l-40 -416h200v-152h-208l-24 -352h-72l24 352h-368l-24 -352h-72l24 352h-152zM296 488h368l40 416h-368z" />
<glyph unicode="$" d="M128 288q0 40 28 76t76 36t68 -24t20 -72t-24 -72t-24 -72t60 -80t140 -32v608q-224 168 -264 252t-40 148q0 120 92 212t212 108v144h72v-144q120 0 204 -76t84 -164q0 -72 -28 -104t-76 -32q-40 0 -60 16t-20 56q0 32 24 52t24 76q0 32 -36 76t-116 44v-520 q136 -112 220 -216t84 -224q0 -184 -100 -268t-204 -100v-208h-72v208q-136 0 -240 80t-104 216zM288 1096q0 -64 44 -124t140 -132v480q-72 -16 -128 -68t-56 -156zM544 56q64 0 124 52t60 196q0 80 -44 156t-140 148v-552z" />
<glyph unicode="%" d="M16 1016q0 176 64 272t152 96q96 0 156 -100t60 -268q0 -144 -48 -252t-168 -108q-96 0 -156 96t-60 264zM120 1024q0 -200 36 -260t76 -60q56 0 84 72t28 248q0 144 -20 224t-92 80q-48 0 -80 -64t-32 -240zM176 8l568 1376l56 -24l-576 -1376zM536 344q0 176 64 276 t152 100q96 0 156 -104t60 -272q0 -160 -56 -260t-160 -100q-88 0 -152 100t-64 260zM640 352q0 -200 36 -256t76 -56q56 0 84 68t28 244q0 136 -24 224t-88 88q-48 0 -80 -76t-32 -236z" />
<glyph unicode="&#x26;" d="M16 344q0 120 52 220t156 180q-24 80 -40 168t-16 168q0 144 72 224t160 80q120 0 168 -72t48 -168q0 -128 -64 -228t-200 -156q56 -152 120 -276t136 -204q40 64 60 156t20 204q0 40 -16 60t-56 20h-40v48h320v-48h-32q-40 0 -64 -24t-32 -72q-24 -136 -52 -240 t-68 -160q56 -72 100 -108t84 -36t68 32t52 96l32 -16q-16 -104 -68 -156t-140 -52q-40 0 -88 32t-112 104q-56 -72 -124 -104t-140 -32q-112 0 -204 104t-92 256zM136 408q0 -176 64 -256t176 -80q48 0 88 20t72 68q-88 104 -164 244t-132 292q-48 -48 -76 -120t-28 -168z M272 1128q0 -80 16 -164t48 -156q88 40 128 132t40 212q0 96 -20 140t-84 44q-40 0 -84 -44t-44 -164z" />
<glyph unicode="'" d="M368 1496q0 32 12 60t28 36q40 24 76 8t52 -32q8 -16 12 -36t-4 -44l-88 -448q0 -16 -12 -20t-28 20z" />
<glyph unicode="(" d="M432 704q0 248 112 476t336 436l40 -40q-184 -192 -276 -412t-92 -460q0 -248 92 -464t276 -408l-40 -40q-224 200 -336 428t-112 484z" />
<glyph unicode=")" d="M80 -168q184 192 276 408t92 464q0 240 -92 460t-276 412l40 40q224 -208 336 -436t112 -476q0 -256 -112 -484t-336 -428z" />
<glyph unicode="*" d="M104 432q-24 64 32 120t320 136q-264 80 -328 140t-24 108q32 64 116 28t276 -212q-72 264 -48 344t80 80q64 0 88 -80t-40 -344q192 192 276 220t108 -28q32 -56 -28 -112t-324 -144q280 -80 336 -132t24 -116q-40 -56 -112 -28t-280 212q64 -288 40 -352t-88 -64 q-56 0 -80 64t48 352q-200 -192 -272 -220t-120 28z" />
<glyph unicode="+" d="M80 680v72h400v456h72v-456h400v-72h-400v-456h-72v456h-400z" />
<glyph unicode="," d="M296 140q0 28 20 56t52 40t88 -4t72 -72t4 -112t-44 -112t-68 -88t-92 -64l-24 32q48 40 76 84t44 124q-40 -16 -72 0t-44 52t-12 64z" />
<glyph unicode="-" d="M56 680v72h888v-72h-888z" />
<glyph unicode="." d="M136 88q0 48 32 80t80 32t80 -32t32 -80t-32 -80t-80 -32t-80 32t-32 80z" />
<glyph unicode="/" d="M64 -152l816 1712l56 -32l-816 -1712z" />
<glyph unicode="0" d="M88 688q0 312 116 504t300 192q176 0 292 -184t116 -512t-116 -516t-292 -188t-296 184t-120 520zM240 688q0 -304 76 -472t188 -168q120 0 188 168t68 472q0 288 -64 460t-192 172q-112 0 -188 -172t-76 -460z" />
<glyph unicode="1" d="M224 0v48h72q80 0 116 32t36 96v968q0 32 -20 52t-60 20h-144v48h72q96 0 156 32t92 96h32v-1216q0 -64 40 -96t112 -32h80v-48h-584z" />
<glyph unicode="2" d="M96 0v104q40 72 132 184t244 264q136 136 200 256t64 224q0 144 -64 220t-192 76q-96 0 -164 -52t-68 -132q0 -48 28 -80t28 -64q0 -40 -20 -60t-60 -20q-48 0 -76 28t-28 92q0 168 120 256t256 88q192 0 284 -96t92 -240q0 -96 -44 -192t-140 -184q-232 -224 -356 -364 t-148 -188h472q72 0 120 56t64 168h48l-48 -344h-744z" />
<glyph unicode="3" d="M112 248q0 48 32 84t64 36q48 0 68 -36t20 -60q0 -40 -16 -68t-16 -52q0 -48 60 -80t132 -32q144 0 216 84t72 260q0 144 -76 232t-284 88v56q160 0 236 76t76 212q0 112 -60 196t-188 84q-56 0 -120 -28t-64 -92t16 -80t16 -40q0 -40 -16 -64t-56 -24q-32 0 -60 24 t-28 88q0 120 104 196t240 76q160 0 256 -100t96 -212q0 -120 -60 -204t-188 -124q176 -64 240 -168t64 -208q0 -152 -112 -268t-312 -116q-144 0 -248 80t-104 184z" />
<glyph unicode="4" d="M64 416v40l584 928h80v-920h216v-48h-216v-264q0 -56 32 -80t88 -24h72v-48h-528v48h88q64 0 92 24t28 80v264h-536zM136 464h464v720h-8z" />
<glyph unicode="5" d="M112 272q0 48 28 84t76 36t64 -32t16 -56q0 -48 -24 -76t-24 -60q0 -64 76 -96t164 -32q128 0 196 104t68 296q0 160 -60 260t-180 100q-88 0 -152 -32t-120 -136l-72 8l40 728h656l-24 -120h-576l-32 -528q80 112 156 136t156 24q152 0 248 -116t96 -308 q0 -216 -100 -344t-308 -128q-144 0 -256 84t-112 204z" />
<glyph unicode="6" d="M88 624q0 368 136 564t368 196q112 0 180 -64t68 -112t-20 -72t-68 -24q-40 0 -60 20t-20 60q0 16 4 32t4 32q0 32 -24 52t-88 20q-136 0 -232 -124t-96 -540q48 104 132 156t180 52q192 0 276 -128t84 -288q0 -240 -116 -356t-268 -116q-216 0 -328 164t-112 476z M240 544q0 -240 84 -372t204 -132t184 88t64 328q0 160 -68 248t-164 88q-88 0 -164 -52t-140 -196z" />
<glyph unicode="7" d="M120 1032l56 336h720v-56q-168 -272 -268 -532t-100 -452q0 -32 4 -92t4 -140q0 -64 -20 -88t-68 -24q-40 0 -68 28t-28 100q0 152 68 376t364 760h-400q-88 0 -140 -56t-76 -168z" />
<glyph unicode="8" d="M80 328q0 136 68 232t196 168q-112 56 -172 140t-60 188q0 136 104 232t288 96q168 0 272 -96t104 -232q0 -96 -60 -180t-188 -148q136 -80 200 -176t64 -208q0 -152 -112 -256t-296 -104q-168 0 -288 104t-120 240zM192 328q0 -128 84 -208t212 -80q152 0 220 80t68 200 q0 104 -96 200t-288 176q-96 -64 -148 -160t-52 -208zM224 1080q0 -88 92 -172t260 -148q96 48 144 120t48 168q0 112 -64 196t-200 84q-152 0 -216 -80t-64 -168z" />
<glyph unicode="9" d="M80 936q0 192 104 320t296 128q200 0 312 -160t112 -464q0 -336 -132 -556t-364 -220q-104 0 -180 48t-76 128q0 32 20 64t68 32t64 -36t16 -84q0 -32 8 -52t16 -28t28 -12t44 -4q144 0 232 160t104 536q-40 -96 -120 -160t-200 -64q-160 0 -256 100t-96 324zM216 944 q0 -176 68 -268t172 -92q120 0 208 112t88 208q0 192 -64 308t-208 116q-136 0 -200 -108t-64 -276z" />
<glyph unicode=":" d="M288 88q0 48 32 80t80 32t80 -32t32 -80t-32 -80t-80 -32t-80 32t-32 80zM288 648q0 48 32 80t80 32t80 -32t32 -80t-32 -80t-80 -32t-80 32t-32 80z" />
<glyph unicode=";" d="M280 164q0 28 20 56t52 40t84 -4t68 -72t8 -108t-32 -100t-68 -84t-92 -60l-24 32q48 32 76 68t44 116q-40 -16 -76 0t-48 52t-12 64zM288 648q0 48 32 80t80 32t80 -32t32 -80t-32 -80t-80 -32t-80 32t-32 80z" />
<glyph unicode="&#x3c;" d="M120 704l712 712l48 -48l-664 -664l664 -664l-48 -48z" />
<glyph unicode="=" d="M56 464v72h888v-72h-888zM56 872v72h888v-72h-888z" />
<glyph unicode="&#x3e;" d="M128 40l664 664l-664 664l48 48l712 -712l-712 -712z" />
<glyph unicode="?" d="M96 1032q0 144 120 260t296 116t288 -104t112 -272q0 -88 -32 -164t-144 -140q-120 -72 -172 -116t-52 -132v-144h-64v160q0 88 28 140t100 100q120 80 156 144t36 160q0 152 -68 224t-204 72q-144 0 -224 -76t-80 -148q0 -24 12 -36t36 -28q32 -16 44 -40t12 -56 q0 -40 -24 -56t-64 -16q-48 0 -80 32t-32 120zM376 88q0 48 32 80t80 32t80 -32t32 -80t-32 -80t-80 -32t-80 32t-32 80z" />
<glyph unicode="@" d="M72 672q0 328 144 520t344 192q168 0 288 -136t120 -440q0 -240 -80 -372t-176 -132q-40 0 -68 32t-36 104q-32 -72 -76 -104t-100 -32q-48 0 -92 64t-44 192q0 176 96 372t216 196q32 0 52 -16t28 -48l16 72h88l-72 -504q-8 -64 -16 -112t-8 -72q0 -32 12 -48t28 -16 q64 0 112 112t48 304q0 320 -108 424t-228 104q-144 0 -260 -148t-116 -508q0 -312 96 -468t256 -156q120 0 212 64t156 192l56 -16q-80 -160 -184 -232t-240 -72q-208 0 -336 196t-128 492zM400 504q0 -72 16 -104t48 -32q48 0 88 56t64 168l56 392q8 48 -12 72t-52 24 q-56 0 -132 -164t-76 -412z" />
<glyph unicode="A" d="M8 0v48h24q32 0 56 20t32 68l312 1224l120 40l304 -1264q16 -48 40 -68t56 -20h24v-48h-344v48h32q48 0 60 28q5 12 5 29q0 23 -9 55l-80 352h-360l-72 -304q-8 -36 -8 -65t8 -51q16 -44 72 -44h24v-48h-296zM296 560h336l-160 664h-8z" />
<glyph unicode="B" d="M24 0v48h64q40 0 56 16t16 48v1144q0 32 -16 48t-56 16h-48v48h464q192 0 284 -76t92 -236q0 -112 -48 -184t-200 -128q184 -56 248 -160t64 -232q0 -160 -112 -256t-304 -96h-504zM288 112q0 -32 20 -48t52 -16h144q136 0 212 84t76 236q0 176 -80 260t-240 84h-184 v-600zM288 760h208q88 0 168 72t80 224q0 144 -80 204t-208 60h-96q-32 0 -52 -16t-20 -48v-496z" />
<glyph unicode="C" d="M56 672q0 304 140 504t380 200q56 0 112 -20t96 -20q32 0 52 8t36 32l72 -352l-48 -16q-48 152 -128 232t-208 80q-168 0 -260 -184t-92 -456q0 -296 80 -464t264 -168q128 0 220 92t124 244l48 -24q-40 -168 -148 -276t-252 -108q-224 0 -356 168t-132 528z" />
<glyph unicode="D" d="M32 0v48h56q40 0 56 16t16 48v1144q0 32 -16 48t-56 16h-48v48h360q248 0 396 -160t148 -496q0 -368 -144 -540t-424 -172h-344zM288 112q0 -32 24 -48t64 -16q176 0 296 132t120 516q0 344 -104 484t-288 140q-56 0 -84 -16t-28 -48v-1144z" />
<glyph unicode="E" d="M48 0v48h48q40 0 56 16t16 48v1144q0 32 -16 48t-56 16h-40v48h784l88 -272l-40 -16q-64 120 -136 180t-160 60h-224q-32 0 -52 -16t-20 -48v-496h232q80 0 116 40t36 120v48h48v-472h-48v32q0 88 -36 136t-116 48h-232v-600q0 -32 20 -48t52 -16h208q120 0 204 68 t132 212l40 -16l-88 -312h-816z" />
<glyph unicode="F" d="M40 0v48h56q40 0 56 16t16 48v1144q0 32 -16 48t-56 16h-48v48h832l96 -288l-40 -16q-64 128 -152 192t-192 64h-224q-32 0 -52 -16t-20 -48v-512h264q80 0 116 36t36 116v40h48v-464h-48v32q0 96 -36 144t-116 48h-264v-584q0 -32 20 -48t52 -16h56v-48h-384z" />
<glyph unicode="G" d="M48 664q0 296 132 508t332 212q48 0 112 -24t80 -24q24 0 48 12t40 36l64 -360l-48 -16q-48 168 -120 244t-176 76q-120 0 -220 -164t-100 -500q0 -224 76 -424t252 -200q88 0 140 36t60 108v272q0 48 -24 72t-72 24h-48v48h400v-48h-40q-40 0 -64 -24t-24 -64v-400 q-16 8 -28 12t-28 4t-32 -4t-32 -20q-48 -40 -100 -56t-116 -16q-240 0 -352 212t-112 468z" />
<glyph unicode="H" d="M24 0v48h40q40 0 56 16t16 48v1144q0 32 -16 48t-56 16h-32v48h336v-48h-32q-32 0 -52 -16t-20 -48v-512h472v512q0 32 -16 48t-56 16h-32v48h336v-48h-32q-32 0 -52 -16t-20 -48v-1144q0 -32 20 -48t52 -16h40v-48h-352v48h40q40 0 56 16t16 48v584h-472v-584 q0 -32 20 -48t52 -16h40v-48h-352z" />
<glyph unicode="I" d="M184 0v48h184q40 0 56 16t16 48v1144q0 32 -16 48t-56 16h-184v48h640v-48h-184q-32 0 -52 -16t-20 -48v-1144q0 -32 20 -48t52 -16h184v-48h-640z" />
<glyph unicode="J" d="M104 160q0 48 28 72t60 24q40 0 64 -28t24 -68q0 -16 -4 -28t-20 -28q16 -24 48 -36t48 -12q104 0 168 68t64 252v840q0 64 -12 84t-60 20h-192v48h656v-48h-192q-32 0 -52 -16t-20 -48v-880q0 -176 -112 -276t-248 -100q-120 0 -184 48t-64 112z" />
<glyph unicode="K" d="M40 0v48h48q40 0 56 16t16 48v1144q0 32 -16 48t-56 16h-48v48h368v-48h-48q-32 0 -52 -16t-20 -48v-584l376 536q29 40 29 66q0 10 -5 18q-16 28 -72 28h-32v48h344v-48h-16q-40 0 -80 -24t-80 -72l-256 -352l344 -736q24 -48 52 -68t44 -20h40v-48h-344v48h24 q48 0 56 32q2 6 2 14q0 29 -26 74l-272 584l-128 -184v-456q0 -32 20 -48t52 -16h48v-48h-368z" />
<glyph unicode="L" d="M56 0v48h56q40 0 56 16t16 48v1144q0 32 -16 48t-56 16h-48v48h376v-48h-56q-32 0 -52 -16t-20 -48v-1144q0 -32 20 -48t52 -16h216q112 0 192 68t120 212l40 -16l-72 -312h-824z" />
<glyph unicode="M" d="M8 1320v48h232l232 -1072h16l248 1072h256v-48h-32q-32 0 -52 -16t-20 -48v-1144q0 -32 20 -48t52 -16h32v-48h-344v48h40q40 0 56 16t16 48v1048h-16l-272 -1160h-48l-248 1136h-16v-1024q0 -32 20 -48t52 -16h24v-48h-240v48h24q40 0 56 16t16 48v1144q0 32 -16 48 t-56 16h-32z" />
<glyph unicode="N" d="M8 0v48h64q40 0 56 16t16 48v1144q0 32 -16 48t-56 16h-48v48h232l544 -1048h16v936q0 32 -16 48t-56 16h-64v48h320v-48h-64q-32 0 -52 -16t-20 -48v-1256h-48l-608 1192h-16v-1080q0 -32 20 -48t52 -16h64v-48h-320z" />
<glyph unicode="O" d="M64 688q0 312 124 504t324 192q208 0 328 -204t120 -492q0 -328 -128 -516t-320 -188q-184 0 -316 192t-132 512zM216 688q0 -344 84 -500t212 -156q136 0 216 148t80 508q0 288 -68 464t-228 176q-136 0 -216 -160t-80 -480z" />
<glyph unicode="P" d="M40 0v48h56q40 0 56 16t16 48v1144q0 32 -16 48t-56 16h-48v48h472q200 0 308 -100t108 -252q0 -184 -116 -280t-276 -96h-248v-528q0 -32 20 -48t52 -16h56v-48h-384zM296 688h200q120 0 212 72t92 248q0 160 -76 236t-244 76h-112q-32 0 -52 -16t-20 -48v-568z" />
<glyph unicode="Q" d="M56 688q0 320 120 508t328 188q192 0 320 -180t128 -516q0 -280 -68 -424t-164 -216q16 -56 40 -80t48 -24q32 0 56 16t32 56l32 -16q-24 -96 -64 -140t-96 -44q-40 0 -76 24t-92 160q-8 -8 -32 -8h-64q-176 0 -312 160t-136 536zM208 688q0 -160 12 -268t36 -156 q32 72 72 108t120 36q96 0 148 -68t92 -204q56 40 84 180t28 372q0 312 -68 476t-228 164q-136 0 -216 -160t-80 -480zM312 192q0 -56 56 -100t136 -44h52t28 8q-24 120 -56 196t-96 76q-32 0 -76 -32t-44 -104z" />
<glyph unicode="R" d="M56 0v48h48q40 0 56 16t16 48v1144q0 32 -16 48t-56 16h-48v48h456q184 0 284 -80t100 -240t-88 -248t-200 -104l240 -592q16 -32 36 -44t44 -12h48v-48h-224l-264 688h-184v-576q0 -32 20 -48t52 -16h48v-48h-368zM304 736h176q120 0 200 72t80 224q0 136 -72 212 t-224 76h-88q-32 0 -52 -16t-20 -48v-520z" />
<glyph unicode="S" d="M80 376l48 16q56 -200 156 -276t228 -76q136 0 204 80t68 232q0 80 -76 156t-236 148q-216 96 -296 168t-80 224q0 120 100 228t284 108q80 0 152 -28t104 -28q24 0 44 12t36 44l32 -328l-40 -16q-72 168 -148 228t-196 60q-152 0 -208 -84t-56 -180q0 -88 52 -140 t284 -156q192 -80 276 -180t84 -236q0 -144 -100 -256t-292 -112q-80 0 -148 28t-108 28q-24 0 -48 -16t-56 -40z" />
<glyph unicode="T" d="M48 1064l72 304h760l64 -304l-40 -8q-64 168 -100 212t-148 44q-80 0 -88 -8t-8 -80v-1112q0 -32 20 -48t52 -16h72v-48h-416v48h72q40 0 56 16t16 48v1120q0 64 -8 72t-64 8q-112 0 -156 -40t-108 -216z" />
<glyph unicode="U" d="M24 1320v48h352v-48h-40q-32 0 -52 -16t-20 -48v-936q0 -160 68 -216t180 -56q120 0 204 80t84 200v928q0 32 -16 48t-56 16h-48v48h288v-48h-48q-32 0 -52 -16t-20 -48v-928q0 -160 -108 -252t-244 -92q-144 0 -252 80t-108 256v936q0 32 -16 48t-56 16h-40z" />
<glyph unicode="V" d="M24 1320v48h344v-48h-32q-40 0 -52 -24q-7 -14 -7 -35q0 -13 3 -29l224 -936h16l240 912q8 28 8 49t-8 35q-16 28 -64 28h-24v48h288v-48h-32q-32 0 -60 -24t-44 -88l-328 -1208h-48l-296 1208q-8 56 -28 84t-60 28h-40z" />
<glyph unicode="W" d="M8 1320v48h280v-48h-24q-32 0 -48 -16t-16 -48l128 -880h16l136 664l-24 216q0 32 -20 48t-36 16h-24v48h272v-48h-24q-32 0 -44 -16t-12 -48l120 -856h16l144 840q8 40 -12 60t-52 20h-24v48h240v-48h-32q-16 0 -36 -16t-28 -56l-216 -1248h-48l-128 848h-16l-168 -848 h-48l-192 1256q0 32 -12 48t-36 16h-32z" />
<glyph unicode="X" d="M48 0v48h32q40 0 72 24t48 56l256 544l-272 592q-8 24 -28 40t-52 16h-32v48h328v-48h-24q-48 0 -56 -24q-3 -8 -3 -19q0 -21 11 -53l192 -424l192 408q18 42 18 68q0 9 -2 16q-8 28 -56 28h-48v48h312v-48h-48q-16 0 -40 -16t-48 -48l-248 -520l280 -600q24 -48 52 -68 t60 -20h24v-48h-344v48h32q40 0 52 20t-4 52l-216 472l-184 -384q-16 -40 -28 -68t-12 -36q0 -32 20 -44t52 -12h16v-48h-304z" />
<glyph unicode="Y" d="M40 1320v48h352v-48h-48q-48 0 -56 -24q-3 -8 -3 -19q0 -21 11 -53l216 -592h16l224 592q2 14 2 25q0 30 -14 47q-20 24 -76 24h-16v48h312v-48h-24q-40 0 -72 -28t-56 -84l-248 -632v-464q0 -32 20 -48t52 -16h72v-48h-416v48h72q40 0 56 16t16 48v416l-272 704 q-16 40 -40 64t-64 24h-16z" />
<glyph unicode="Z" d="M64 0l704 1320h-280q-104 0 -188 -60t-148 -180l-48 16l96 272h728l-704 -1320h344q104 0 180 68t124 204l48 -8l-88 -312h-768z" />
<glyph unicode="[" d="M392 -144v1776h480v-72h-400v-1632h400v-72h-480z" />
<glyph unicode="\" d="M144 1576h96l680 -1704h-96z" />
<glyph unicode="]" d="M128 -72h400v1632h-400v72h480v-1776h-480v72z" />
<glyph unicode="^" d="M232 1408l176 216h192l168 -216l-16 -16l-248 160l-256 -160z" />
<glyph unicode="_" d="M0 -224h1008v-48h-1008v48z" />
<glyph unicode="`" d="M160 1600l16 24h216l176 -176l-8 -32z" />
<glyph unicode="a" d="M80 216q0 144 124 236t492 132v96q0 80 -36 132t-164 52q-136 0 -192 -44q-44 -34 -44 -71q0 -10 4 -21q8 -16 8 -32t-8 -32q-16 -32 -64 -32q-32 0 -52 20t-20 60q0 72 104 136t256 64q160 0 240 -60t80 -172v-528q0 -64 12 -76t44 -12q40 0 56 36t16 100h40 q0 -112 -40 -156t-104 -44q-56 0 -88 24t-48 80q-80 -56 -148 -84t-164 -28q-144 0 -224 68t-80 156zM216 240q0 -72 44 -132t140 -60q72 0 144 28t152 84v376q-272 -32 -376 -108t-104 -188z" />
<glyph unicode="b" d="M40 1320v48h72q40 0 80 16t80 48v-720q40 88 128 140t168 52q168 0 252 -116t84 -340t-108 -340t-268 -116q-80 0 -148 28t-116 76l-72 -96h-32v1256q0 32 -16 48t-56 16h-48zM272 264q0 -88 60 -152t180 -64q144 0 204 100t60 300q0 192 -52 292t-164 100 q-96 0 -168 -56t-120 -200v-320z" />
<glyph unicode="c" d="M112 448q0 200 120 332t312 132q136 0 212 -72t76 -144q0 -48 -20 -68t-60 -20q-32 0 -52 20t-20 52q0 24 4 32t12 32q1 5 1 11q0 28 -33 65q-40 44 -136 44q-120 0 -204 -116t-84 -308q0 -176 72 -284t240 -108q112 0 188 72t108 168l40 -16q-32 -120 -120 -204 t-240 -84q-192 0 -304 120t-112 344z" />
<glyph unicode="d" d="M112 448q0 208 112 332t264 124q64 0 132 -28t108 -84v432q0 48 -16 72t-56 24h-64v48h88q40 0 80 16t80 48v-1264q0 -40 16 -56t48 -16h56v-48h-48q-32 0 -76 -12t-92 -36h-16v152q-40 -72 -108 -116t-156 -44q-144 0 -248 116t-104 340zM240 432q0 -192 64 -284 t184 -92q88 0 148 56t92 168v440q-40 64 -104 92t-128 28q-120 0 -188 -112t-68 -296z" />
<glyph unicode="e" d="M120 448q0 200 116 332t284 132q152 0 264 -104t112 -360h-648q0 -216 84 -308t220 -92q104 0 176 60t104 148l40 -16q-24 -88 -108 -172t-228 -84q-184 0 -300 120t-116 344zM248 496h512q1 19 1 36q0 150 -61 232q-68 92 -180 92q-120 0 -196 -96t-76 -264z" />
<glyph unicode="f" d="M104 848v48h248v136q0 168 104 252t232 84q136 0 204 -48t68 -112q0 -32 -16 -56t-64 -24q-32 0 -52 16t-20 56q0 8 4 24t4 24q0 32 -24 52t-112 20q-96 0 -156 -60t-60 -204v-160h336v-48h-336v-736q0 -32 20 -48t52 -16h192v-48h-584v48h136q40 0 56 16t16 48v736h-248 z" />
<glyph unicode="g" d="M104 -80q0 56 40 112t128 88q-48 24 -76 52t-28 68q0 48 32 84t80 60q-48 40 -84 96t-36 120q0 120 84 212t236 92q64 0 124 -16t100 -56q56 40 100 60t76 20q40 0 56 -28t16 -52q0 -32 -12 -52t-44 -20q-24 0 -40 12t-24 36t-36 20t-60 -28q32 -32 48 -88t16 -112 q0 -96 -76 -188t-244 -92q-48 0 -88 12t-64 28q-32 -16 -48 -40t-16 -40q0 -32 16 -48t48 -16q104 -16 188 -28t148 -20q120 -16 176 -68t56 -140q0 -120 -100 -192t-316 -72q-168 0 -272 68t-104 156zM208 -80q0 -64 72 -120t216 -56q136 0 216 44t80 132q0 56 -20 88 t-60 40q-80 16 -176 28t-200 28q-72 -32 -100 -76t-28 -108zM272 600q0 -96 56 -164t152 -68q104 0 156 60t52 172q0 136 -60 196t-148 60t-148 -60t-60 -196z" />
<glyph unicode="h" d="M48 1320v48h88q32 0 64 16t64 48h16v-680q72 88 148 124t164 36q120 0 184 -68t64 -212v-520q0 -32 20 -48t52 -16h40v-48h-336v48h40q40 0 56 16t16 48v504q0 136 -44 180t-116 44q-64 0 -140 -40t-148 -136v-552q0 -32 20 -48t52 -16h40v-48h-336v48h40q40 0 56 16 t16 48v1144q0 32 -16 48t-56 16h-48z" />
<glyph unicode="i" d="M208 0v48h168q40 0 56 16t16 48v664q0 32 -16 52t-56 20h-168v48h80q72 0 136 12t120 44h16v-840q0 -32 20 -48t52 -16h168v-48h-592zM392 1272q0 48 32 80t80 32t80 -32t32 -80t-32 -80t-80 -32t-80 32t-32 80z" />
<glyph unicode="j" d="M152 -160q0 32 20 52t60 20t52 -24t20 -48q16 -48 40 -60t80 -12q128 0 188 68t60 212v728q0 32 -16 52t-56 20h-160v48h72q72 0 136 12t120 44h16v-872q0 -184 -112 -280t-272 -96q-128 0 -188 40t-60 96zM608 1272q0 48 32 80t80 32t80 -32t32 -80t-32 -80t-80 -32 t-80 32t-32 80z" />
<glyph unicode="k" d="M56 1320v48h72q48 0 84 16t60 48h16v-1016l336 360q16 32 12 52t-36 20h-48v48h336v-48h-40q-24 0 -60 -12t-68 -44l-192 -216l304 -472q24 -32 44 -44t44 -12h32v-48h-328v48h24q40 0 56 12t-8 44l-248 392l-160 -168v-216q0 -32 20 -48t52 -16h40v-48h-336v48h40 q40 0 56 16t16 48v1144q0 32 -16 48t-56 16h-48z" />
<glyph unicode="l" d="M192 0v48h184q40 0 56 16t16 48v1144q0 32 -16 48t-56 16h-176v48h88q72 0 136 16t120 48h16v-1320q0 -32 20 -48t52 -16h184v-48h-624z" />
<glyph unicode="m" d="M16 0v48h16q32 0 48 12t16 44v696q0 24 -8 36t-32 12h-32v48h24q40 0 80 8t64 24h16v-136q40 64 88 92t104 28q72 0 112 -28t48 -92q40 64 92 92t108 28q96 0 132 -56t36 -144v-608q0 -32 16 -44t48 -12h16v-48h-272v48h16q32 0 48 12t16 44v600q0 88 -20 116t-60 28 q-56 0 -100 -40t-68 -112v-592q0 -32 16 -44t48 -12h16v-48h-272v48h16q32 0 48 12t16 44v600q0 72 -16 108t-64 36q-56 0 -100 -40t-68 -120v-584q0 -32 16 -44t48 -12h16v-48h-272z" />
<glyph unicode="n" d="M56 0v48h40q40 0 56 16t16 48v688q0 24 -8 36t-32 12h-64v48h56q40 0 76 8t68 32h16v-184q72 80 144 120t152 40q136 0 200 -72t64 -216v-512q0 -32 20 -48t52 -16h40v-48h-336v48h40q40 0 56 16t16 48v536q0 96 -40 148t-120 52q-72 0 -148 -48t-140 -136v-552 q0 -32 20 -48t52 -16h40v-48h-336z" />
<glyph unicode="o" d="M88 448q0 176 116 320t300 144q192 0 304 -144t112 -320q0 -200 -120 -332t-296 -132q-184 0 -300 136t-116 328zM216 440q0 -208 84 -308t204 -100q136 0 212 108t76 300q0 208 -84 316t-204 108q-112 0 -200 -108t-88 -316z" />
<glyph unicode="p" d="M48 -248h48q40 0 56 16t16 56v944q0 32 -16 52t-56 20h-48v48h72q40 0 76 8t68 32h16v-184q56 80 124 120t148 40q160 0 264 -108t104 -340q0 -224 -112 -344t-264 -120q-88 0 -148 28t-116 84v-280q0 -40 24 -56t56 -16h56v-48h-368v48zM280 208q40 -80 100 -120 t140 -40q112 0 192 100t80 308q0 192 -60 288t-180 96q-72 0 -144 -44t-128 -140v-448z" />
<glyph unicode="q" d="M96 448q0 216 120 336t256 120q88 0 148 -32t108 -80l72 104h32v-1072q0 -40 20 -56t52 -16h48v-48h-368v48h64q40 0 56 16t16 56v296q-48 -64 -116 -96t-164 -32q-136 0 -240 116t-104 340zM224 424q0 -200 68 -284t172 -84q88 0 156 40t100 136v456q-32 72 -88 116 t-136 44q-112 0 -192 -96t-80 -328z" />
<glyph unicode="r" d="M56 0v48h160q40 0 56 16t16 48v664q0 32 -16 52t-56 20h-152v48h64q56 0 132 12t116 28h24v-288q80 128 172 196t188 68q80 0 124 -36t44 -84q0 -40 -20 -64t-60 -24t-60 24q-14 17 -14 42q0 10 2 22q0 24 -8 40t-48 16q-64 0 -156 -80t-164 -224v-432q0 -32 20 -48 t52 -16h176v-48h-592z" />
<glyph unicode="s" d="M160 288l48 8q24 -128 104 -192t224 -64q112 0 172 40t60 120q0 56 -32 92t-64 52q-80 32 -176 68t-168 68t-104 80t-32 104q0 120 92 184t220 64q72 0 136 -20t88 -20t40 8t40 32l32 -264l-48 -8q-32 104 -108 164t-172 60q-104 0 -164 -40t-60 -112q0 -64 28 -100 t100 -52q56 -24 140 -52t156 -60q64 -32 108 -84t44 -116q0 -120 -84 -188t-244 -68q-104 0 -156 20t-84 20q-24 0 -52 -12t-60 -28z" />
<glyph unicode="t" d="M120 848v48h64q96 0 156 60t76 188l8 64h48v-312h320v-48h-320v-592q0 -112 40 -152t120 -40t128 52t64 148l40 -16q-16 -112 -84 -184t-180 -72q-120 0 -180 72t-60 224v560h-240z" />
<glyph unicode="u" d="M40 848v48h48q48 0 88 8t80 40h16v-664q0 -112 48 -160t136 -48q96 0 164 48t100 152v504q0 32 -16 52t-56 20h-48v48h48q48 0 88 8t80 40h16v-784q0 -32 20 -48t52 -16h48v-48h-48q-40 0 -80 -12t-88 -36h-16v168q-40 -88 -120 -132t-184 -44q-128 0 -192 72t-64 232 v480q0 32 -16 52t-56 20h-48z" />
<glyph unicode="v" d="M64 848v48h344v-48h-32q-48 0 -60 -24q-5 -10 -5 -26q0 -22 9 -54l192 -560h16l192 552q13 31 13 53q0 19 -9 31q-20 28 -68 28h-16v48h288v-48h-16q-48 0 -76 -28t-52 -84l-272 -744h-48l-272 784q-8 32 -32 52t-56 20h-40z" />
<glyph unicode="w" d="M0 848v48h288v-48h-32q-32 0 -40 -28q-4 -14 -4 -33t4 -43l120 -520h16l120 480q-8 72 -32 108t-56 36h-24v48h272v-48h-24q-32 0 -40 -28q-4 -14 -4 -33t4 -43l120 -520h8l136 560q8 32 -8 48t-48 16h-40v48h272v-48h-32q-32 0 -56 -24t-40 -80l-192 -752h-48l-144 608 l-152 -608h-48l-184 736q-8 56 -32 88t-48 32h-32z" />
<glyph unicode="x" d="M64 0v48h48q32 0 72 24t64 72l208 312l-208 336q-8 16 -32 36t-64 20h-40v48h344v-48h-24q-40 0 -48 -24t8 -56l136 -216l144 216q24 32 20 56t-60 24h-48v48h312v-48h-40q-16 0 -40 -4t-40 -28l-216 -320l224 -368q24 -40 60 -60t52 -20h32v-48h-352v48h48q48 0 52 24 t-12 56l-168 272l-192 -280q-8 -40 4 -56t44 -16h24v-48h-312z" />
<glyph unicode="y" d="M80 848v48h336v-48h-32q-32 0 -48 -20t-8 -60l192 -544h16l176 536q7 18 7 32q0 19 -11 32q-20 24 -52 24h-48v48h336v-48h-48q-32 0 -64 -24t-48 -64l-272 -792q-40 -128 -100 -196t-156 -76q-48 0 -84 24t-36 64q0 32 20 56t60 24q32 0 52 -32q15 -23 44 -23q11 0 24 3 q48 12 64 52q16 24 40 84t40 124l-272 704q-8 32 -36 52t-60 20h-32z" />
<glyph unicode="z" d="M128 0v40l552 808h-296q-72 0 -120 -52t-80 -180l-48 8l32 272h656v-24l-560 -824h304q104 0 164 64t92 208l48 -8l-56 -312h-688z" />
<glyph unicode="{" d="M424 712v48q104 16 140 64t36 160v344q0 176 64 244t200 68v-56q-104 0 -148 -56t-44 -168v-392q0 -128 -56 -176t-120 -48v-16q72 0 124 -56t52 -168v-392q0 -104 44 -164t148 -60v-56q-136 0 -200 68t-64 244v344q0 96 -32 156t-144 68z" />
<glyph unicode="|" d="M472 -272v2032h48v-2032h-48z" />
<glyph unicode="}" d="M144 -112q112 0 152 60t40 164v392q0 112 52 168t124 56v16q-64 0 -120 48t-56 176v392q0 112 -40 168t-152 56v56q136 0 200 -68t64 -244v-344q0 -112 40 -160t136 -64v-48q-104 -8 -140 -68t-36 -156v-344q0 -176 -64 -244t-200 -68v56z" />
<glyph unicode="~" d="M72 1432q40 152 100 208t132 56q32 0 72 -8t80 -48q32 -24 72 -72t72 -80q40 -40 76 -68t68 -28q64 0 104 56t64 152l40 -16q-40 -144 -100 -204t-132 -60q-32 0 -68 12t-76 44q-24 24 -64 68t-80 84l-72 72t-80 32q-64 0 -104 -60t-64 -156z" />
<glyph unicode="&#xa0;" />
<glyph unicode="&#xa4;" horiz-adv-x="2048" d="M192 -48l248 248q-176 216 -184 496t192 504l-256 256l64 72l256 -256q200 176 500 176t508 -176l264 264l72 -72l-264 -264q192 -232 180 -520t-180 -480l240 -240l-72 -72l-240 240q-272 -184 -552 -172t-464 172l-240 -240zM360 700q0 -228 128 -396t300 -224t384 -8 t348 208t148 404t-160 452t-496 208t-488 -208t-164 -436z" />
<glyph unicode="&#xa7;" horiz-adv-x="2048" d="M684 0q-4 56 28 84t64 20t52 -32t20 -40t-16 -44t8 -52t96 -36t160 16t84 96t-168 228t-272 320t-48 276t292 124q-216 216 -228 312t24 164t132 96t208 12t172 -60t64 -84t-16 -64t-48 -32t-56 8t-36 40t0 44t-4 48t-100 44t-172 -24t-80 -120t148 -204t228 -200 t136 -176t40 -196t-92 -156t-208 -52q216 -200 220 -304t-76 -164t-252 -52t-236 56t-68 104zM772 808q-20 -56 88 -180t196 -220q112 0 156 40t52 96t-44 156t-188 204q-104 8 -172 -16t-88 -80z" />
<glyph unicode="&#xa8;" horiz-adv-x="2048" d="M624 1296q0 48 32 80t80 32t80 -32t32 -80t-32 -80t-80 -32t-80 32t-32 80zM1200 1296q0 48 32 80t80 32t80 -32t32 -80t-32 -80t-80 -32t-80 32t-32 80z" />
<glyph unicode="&#xad;" d="M56 680v72h888v-72h-888z" />
<glyph unicode="&#xb0;" horiz-adv-x="2048" d="M272 1224q0 88 56 152q72 72 176 72t176 -72q56 -64 56 -152t-56 -160q-72 -72 -176 -72t-176 72q-56 72 -56 160zM344 1224q0 -64 40 -112q48 -48 120 -48t120 48q40 48 40 112q0 56 -40 104q-48 48 -120 48t-120 -48q-40 -48 -40 -104z" />
<glyph unicode="&#xb1;" horiz-adv-x="2048" d="M320 24h1400v-96h-1400v96zM320 744v96h640v632h96v-632h664v-96h-664v-552h-96v552h-640z" />
<glyph unicode="&#xb7;" horiz-adv-x="2048" d="M792 744q0 88 56 152q72 72 176 72t176 -72q56 -64 56 -152t-56 -160q-72 -72 -176 -72t-176 72q-56 72 -56 160z" />
<glyph unicode="&#xd7;" horiz-adv-x="2048" d="M384 160l576 576l-576 576l64 64l576 -576l552 576l72 -64l-560 -576l576 -568l-72 -72l-568 576l-576 -576z" />
<glyph unicode="&#xe0;" horiz-adv-x="2048" d="M560 452q0 180 104 304t204 148t184 0t140 -112q32 64 80 128h24v-744q0 -104 56 -120v-48h-56q-112 0 -112 112v32q-48 -96 -144 -132t-208 -12t-192 144t-80 300zM696 460q0 -164 36 -240t104 -112t176 -16t172 156v456q-56 128 -200 124t-216 -104t-72 -264zM780 1248 q4 56 44 68t80 -12t136 -296l-40 -8q-224 192 -220 248z" />
<glyph unicode="&#xe1;" horiz-adv-x="2048" d="M560 452q0 180 104 304t204 148t184 0t140 -112q32 64 80 128h24v-744q0 -104 56 -120v-48h-56q-112 0 -112 112v32q-48 -96 -144 -132t-208 -12t-192 144t-80 300zM696 460q0 -164 36 -240t104 -112t176 -16t172 156v456q-56 128 -200 124t-216 -104t-72 -264zM848 1068 q0 44 264 252h40q-144 -272 -180 -300t-80 -12t-44 60z" />
<glyph unicode="&#xe8;" horiz-adv-x="2048" d="M600 464q0 200 116 332t284 132q152 0 264 -104t112 -360h-648q0 -216 84 -308t220 -92q104 0 176 60t104 148l40 -16q-24 -88 -108 -172t-228 -84q-184 0 -300 120t-116 344zM728 512h512q8 176 -60 268t-180 92q-120 0 -196 -96t-76 -264zM792 1256q0 56 52 68t88 -24 t124 -284l-40 -8q-224 192 -224 248z" />
<glyph unicode="&#xe9;" horiz-adv-x="2048" d="M600 464q0 200 116 332t284 132q152 0 264 -104t112 -360h-648q0 -216 84 -308t220 -92q104 0 176 60t104 148l40 -16q-24 -88 -108 -172t-228 -84q-184 0 -300 120t-116 344zM728 512h512q8 176 -60 268t-180 92q-120 0 -196 -96t-76 -264zM920 1068q0 44 264 252h40 q-144 -272 -180 -300t-80 -12t-44 60z" />
<glyph unicode="&#xea;" horiz-adv-x="2048" d="M600 464q0 200 116 332t284 132q152 0 264 -104t112 -360h-648q0 -216 84 -308t220 -92q104 0 176 60t104 148l40 -16q-24 -88 -108 -172t-228 -84q-184 0 -300 120t-116 344zM664 1000q216 328 252 336t60 8t64 -16t248 -328h-40l-272 208l-272 -208h-40zM728 512h512 q8 176 -60 268t-180 92q-120 0 -196 -96t-76 -264z" />
<glyph unicode="&#xec;" horiz-adv-x="2048" d="M800 0v48h168q40 0 56 16t16 48v664q0 32 -16 52t-56 20h-168v48h80q72 0 136 12t120 44h16v-840q0 -32 20 -48t52 -16h168v-48h-592zM856 1256q0 56 52 68t88 -24t124 -284l-40 -8q-224 192 -224 248z" />
<glyph unicode="&#xed;" horiz-adv-x="2048" d="M800 0v48h168q40 0 56 16t16 48v664q0 32 -16 52t-56 20h-168v48h80q72 0 136 12t120 44h16v-840q0 -32 20 -48t52 -16h168v-48h-592zM976 1068q0 44 264 252h40q-144 -272 -180 -300t-80 -12t-44 60z" />
<glyph unicode="&#xf2;" horiz-adv-x="2048" d="M600 464q0 176 116 320t300 144q192 0 304 -144t112 -320q0 -200 -120 -332t-296 -132q-184 0 -300 136t-116 328zM728 456q0 -208 84 -308t204 -100q136 0 212 108t76 300q0 208 -84 316t-204 108q-112 0 -200 -108t-88 -316zM800 1248q0 56 48 72t88 -24t128 -288 l-40 -8q-224 192 -224 248z" />
<glyph unicode="&#xf3;" horiz-adv-x="2048" d="M600 464q0 176 116 320t300 144q192 0 304 -144t112 -320q0 -200 -120 -332t-296 -132q-184 0 -300 136t-116 328zM728 456q0 -208 84 -308t204 -100q136 0 212 108t76 300q0 208 -84 316t-204 108q-112 0 -200 -108t-88 -316zM952 1060q0 44 264 252h40 q-144 -272 -180 -300t-80 -12t-44 60z" />
<glyph unicode="&#xf7;" horiz-adv-x="2048" d="M288 688v96h1464v-96h-1464zM872 232q0 56 40 104q48 40 112 40q72 0 112 -48q40 -40 40 -96q0 -64 -40 -104q-40 -48 -112 -48q-64 0 -112 48q-40 40 -40 104zM872 1240q0 56 40 104q48 40 112 40q72 0 112 -48q40 -40 40 -96q0 -64 -40 -104q-40 -48 -112 -48 q-64 0 -112 48q-40 40 -40 104z" />
<glyph unicode="&#xf9;" horiz-adv-x="2048" d="M560 856v48h48q48 0 88 8t80 40h16v-664q0 -112 48 -160t136 -48q96 0 164 48t100 152v504q0 32 -16 52t-56 20h-48v48h48q48 0 88 8t80 40h16v-784q0 -32 20 -48t52 -16h48v-48h-48q-40 0 -80 -12t-88 -36h-16v168q-40 -88 -120 -132t-184 -44q-128 0 -192 72t-64 232 v480q0 32 -16 52t-56 20h-48zM824 1256q0 56 48 72t88 -24t128 -288l-40 -8q-224 192 -224 248z" />
<glyph unicode="&#xfa;" horiz-adv-x="2048" d="M560 856v48h48q48 0 88 8t80 40h16v-664q0 -112 48 -160t136 -48q96 0 164 48t100 152v504q0 32 -16 52t-56 20h-48v48h48q48 0 88 8t80 40h16v-784q0 -32 20 -48t52 -16h48v-48h-48q-40 0 -80 -12t-88 -36h-16v168q-40 -88 -120 -132t-184 -44q-128 0 -192 72t-64 232 v480q0 32 -16 52t-56 20h-48zM960 1076q0 44 264 252h40q-144 -272 -180 -300t-80 -12t-44 60z" />
<glyph unicode="&#xfc;" horiz-adv-x="2048" d="M560 856v48h48q48 0 88 8t80 40h16v-664q0 -112 48 -160t136 -48q96 0 164 48t100 152v504q0 32 -16 52t-56 20h-48v48h48q48 0 88 8t80 40h16v-784q0 -32 20 -48t52 -16h48v-48h-48q-40 0 -80 -12t-88 -36h-16v168q-40 -88 -120 -132t-184 -44q-128 0 -192 72t-64 232 v480q0 32 -16 52t-56 20h-48zM704 1096q0 40 32 72q24 24 72 24q40 0 64 -24q32 -32 32 -72t-32 -72q-24 -24 -64 -24q-48 0 -72 24q-32 32 -32 72zM1120 1096q0 40 32 72q24 24 72 24q40 0 64 -24q32 -32 32 -72t-32 -72q-24 -24 -64 -24q-48 0 -72 24q-32 32 -32 72z" />
<glyph unicode="&#x2000;" horiz-adv-x="880" vert-adv-y="0" />
<glyph unicode="&#x2001;" horiz-adv-x="1760" vert-adv-y="0" />
<glyph unicode="&#x2002;" horiz-adv-x="880" vert-adv-y="0" />
<glyph unicode="&#x2003;" horiz-adv-x="1760" vert-adv-y="0" />
<glyph unicode="&#x2004;" horiz-adv-x="586" vert-adv-y="0" />
<glyph unicode="&#x2005;" horiz-adv-x="440" vert-adv-y="0" />
<glyph unicode="&#x2006;" horiz-adv-x="293" vert-adv-y="0" />
<glyph unicode="&#x2007;" horiz-adv-x="293" vert-adv-y="0" />
<glyph unicode="&#x2008;" horiz-adv-x="220" vert-adv-y="0" />
<glyph unicode="&#x2009;" horiz-adv-x="352" vert-adv-y="0" />
<glyph unicode="&#x200a;" horiz-adv-x="97" vert-adv-y="0" />
<glyph unicode="&#x2010;" d="M56 680v72h888v-72h-888z" />
<glyph unicode="&#x2011;" d="M56 680v72h888v-72h-888z" />
<glyph unicode="&#x2012;" d="M56 680v72h888v-72h-888z" />
<glyph unicode="&#x2013;" horiz-adv-x="2048" d="M648 688v96h768v-96h-768z" />
<glyph unicode="&#x2014;" horiz-adv-x="2048" d="M64 696v80h1928v-80h-1928z" />
<glyph unicode="&#x2018;" horiz-adv-x="2048" d="M1404 1040q-28 64 0 152t88 164t156 148t116 64t-56 -76t-116 -124t-72 -152q96 8 132 -40t28 -104t-60 -96t-120 -20t-96 84z" />
<glyph unicode="&#x2019;" horiz-adv-x="2048" d="M292 944q-12 8 56 80t100 124t72 132q-88 0 -120 44t-28 104t48 96t116 16t96 -84t-4 -144t-84 -152t-148 -148t-104 -68z" />
<glyph unicode="&#x201c;" horiz-adv-x="2048" d="M972 1040q-28 64 0 152t88 164t156 148t116 64t-56 -76t-116 -124t-72 -152q96 8 132 -40t28 -104t-60 -96t-120 -20t-96 84zM1404 1040q-28 64 0 152t88 164t156 148t116 64t-56 -76t-116 -124t-72 -152q96 8 132 -40t28 -104t-60 -96t-120 -20t-96 84z" />
<glyph unicode="&#x201d;" horiz-adv-x="2048" d="M288 944q-16 8 56 80t104 124t72 132q-88 0 -120 44t-28 104t48 96t116 16t96 -84t-4 -144t-84 -152t-148 -148t-108 -68zM704 944q-16 8 56 80t104 124t72 132q-88 0 -120 44t-28 104t48 96t116 16t96 -84t-4 -144t-84 -152t-148 -148t-108 -68z" />
<glyph unicode="&#x2026;" horiz-adv-x="2048" d="M216 736q0 88 72 128q80 40 152 0t72 -128t-72 -128q-64 -32 -144 0q-80 40 -80 128zM880 736q0 88 72 128q80 40 152 0t72 -128t-72 -128q-64 -32 -144 0q-80 40 -80 128zM1528 736q0 88 72 128q80 40 152 0t72 -128t-72 -128q-64 -32 -144 0q-80 40 -80 128z" />
<glyph unicode="&#x202f;" horiz-adv-x="352" vert-adv-y="0" />
<glyph unicode="&#x205f;" horiz-adv-x="440" vert-adv-y="0" />
<glyph unicode="&#x20ac;" horiz-adv-x="2048" d="M264 544l32 72h120q-8 64 0 120h-152l32 80h128q32 216 228 388t476 156q224 -16 408 -136l24 -248h-56q-104 304 -392 304q-208 0 -368 -160q-112 -128 -128 -304h824l-32 -80h-800q-8 -48 0 -120h744l-32 -72h-704q24 -208 152 -344q144 -128 328 -128q168 0 260 48 t196 160l40 -24q-96 -128 -228 -200t-340 -80q-280 24 -456 208q-128 144 -152 360h-152z" />
<glyph unicode="&#x25fc;" horiz-adv-x="880" vert-adv-y="1760" d="M0 0v880h880v-880h-880z" />
</font>
</defs>
</svg>
